<?xml version="1.0" encoding="UTF-8"?>
<!DOCTYPE svg PUBLIC "-//W3C//DTD SVG 1.1//EN" "http://www.w3.org/Graphics/SVG/1.1/DTD/svg11.dtd">
<!-- Creator: CorelDRAW 2020 (64-Bit) -->
<svg xmlns="http://www.w3.org/2000/svg" xml:space="preserve" width="227.542mm" height="283.104mm" version="1.1" style="shape-rendering:geometricPrecision; text-rendering:geometricPrecision; image-rendering:optimizeQuality; fill-rule:evenodd; clip-rule:evenodd"
viewBox="0 0 22754.16 28310.4"
 xmlns:xlink="http://www.w3.org/1999/xlink"
 xmlns:xodm="http://www.corel.com/coreldraw/odm/2003">
 <defs>
  <style type="text/css">
   <![CDATA[
    .str1 {stroke:#3D8C78;stroke-width:20;stroke-miterlimit:22.9256}
    .str0 {stroke:#67CCB9;stroke-width:20;stroke-miterlimit:22.9256}
    .fil1 {fill:#1F1F1F}
    .fil2 {fill:#3D8C78}
    .fil0 {fill:#67CCB9}
    .fil3 {fill:#F2FDEE}
   ]]>
  </style>
 </defs>
 <g id="Capa_x0020_1">
  <metadata id="CorelCorpID_0Corel-Layer"/>
  <path class="fil0 str0" d="M5804.74 10555.14c-206.69,89.3 -534.12,343.38 -683.59,481.2 -105.51,97.29 -468.36,522.53 -509.02,679.52 -196,640.48 -264.27,625.76 -318.91,1464.23 -116.68,1790.01 642.38,4041.99 1558.51,5575.74l1526.24 2071.54c153.31,122.14 884.19,949.02 1359.8,1299.72 82.69,60.97 176.28,133.66 251.06,197.75 80.36,68.88 41.31,42.96 122.77,103.47l525.53 374.85c1227.85,736.53 1626.96,1003.74 3206.01,1514.52 826.65,267.4 2108.49,541.34 3006.5,558.25 981.42,18.49 2369.5,46.57 3183.61,-377.14 86.47,2.62 332.92,-200.42 413.37,-261.02 175.55,-132.26 254.94,-240.72 399.22,-351.38 273.07,-209.44 484.51,-456.37 720.43,-739.12 607.62,-728.22 685.35,-944.7 1109.41,-1671.12 38.05,-65.16 9.39,-102.13 45.99,-50.51 101.59,-95.59 96.84,-188.74 160.97,-336.21 838.36,-1928.01 1090.27,-4471.72 628.26,-6439.03 -155.86,-663.66 -466.38,-1568.56 -824.79,-2173.22 -515.86,-870.25 -1146.85,-1544.32 -2028.19,-2019.12 -937.27,-504.94 -2320.38,-683.28 -3395.98,-535.64 -510.05,70 -1095.64,264.07 -1570.57,453.09 -24.08,9.57 -135.36,54.5 -160.36,64.49l-893.46 380.69c-507.49,208.1 -1530.9,490.19 -2084.8,397.4 -1056.72,-177.02 -959.11,-231.85 -1939.98,-570.85 -143.35,-49.54 -237.43,-105.11 -378.29,-146.37 -1088.53,-318.82 -2401.72,-445.33 -3429.74,54.27z"/>
  <path class="fil1" d="M21721.67 21425.64c-36.6,-51.62 -7.94,-14.65 -45.99,50.51 -424.06,726.42 -501.79,942.9 -1109.41,1671.12 -235.92,282.75 -447.36,529.68 -720.43,739.12 -144.28,110.66 -223.67,219.12 -399.22,351.38 -80.45,60.6 -326.9,263.64 -413.37,261.02 -158.1,236.23 -957.73,704.02 -1271.81,866.56 -444.21,229.89 -965.59,482.82 -1460.55,637.2 -2879.92,898.29 -5810.32,376.48 -8216.45,-1384.34 -867.41,-634.77 -920.19,-772.03 -1646.38,-1465.34 -342.18,-326.67 -1076.76,-1316.23 -1352.04,-1759.13 -560.73,-902.19 -926.16,-1741.44 -1286.31,-2871.38 -521.09,-1634.79 -505.69,-3795.75 82.83,-5462.7 82.81,-234.54 491.44,-1182.95 729.59,-1343.8 40.66,-156.99 403.51,-582.23 509.02,-679.52 149.47,-137.82 476.9,-391.9 683.59,-481.2l-412.23 -559.4c768.1,-883.69 2271.46,-848.25 3308.25,-647.52 512.7,99.26 759,236.37 1184.38,389.56 136.72,49.25 259.78,93.7 403.84,158.3 799.05,358.4 1721.64,506.72 2620.42,158.99 137.55,-53.22 238.99,-91.43 371.32,-153.33 1462.47,-684.04 2163.78,-946.73 3879.24,-955.56 418.35,-2.15 975.13,104.12 1354.04,219.91 160.58,49.06 269.24,122.98 407.03,155.09 -235.38,-351.52 -1630.7,-813.51 -2226.81,-921.1 -983.35,-177.5 -1838.98,-180.62 -2808.49,83 -660.12,179.5 -1404.68,591.71 -1485.38,613.25 68.71,-294.9 569.87,-1123.16 815.37,-1395.66 599.87,-665.81 1011.53,-1062.94 1796.35,-1501.48 256.23,-143.18 487.88,-247.64 612.78,-511.47 306.6,-647.7 -393.63,-1915.36 -1485.73,-1260.88 -512.13,306.92 -1311.8,1177.7 -1674.49,1660.8 -340.27,453.27 -573.39,840.97 -839.21,1371.82 -141.93,283.49 -536.69,1345.9 -536.69,1711.81 -91.77,-24.5 -285.19,-138 -373.02,-189.08 -153.55,-89.32 -217.53,-116.76 -401.14,-198.48 -1503.87,-669.36 -3313.36,-725.59 -4907.99,-197.96 -312.33,103.34 -540.59,202.99 -819.38,342.34 -1812.95,906.23 -3096.03,2444.06 -3889.61,4279.97 -215.95,499.59 -429.61,1270.34 -530.4,1830.54 -400.28,2224.9 9.03,4773.51 965.44,6824.46 394.04,844.99 736.83,1472.57 1299.35,2223.32l776.85 947c107.8,111.99 197.09,178.87 294.03,305.57 233.73,305.5 1206.79,1093.87 1573.35,1312.24 271.65,161.83 671.05,431.27 950.29,548.72 134.42,56.51 113.88,0.31 152.99,146.8 -1342.79,0 -4870.85,-59.8 -5621.26,337.27 0,300.87 122.6,284.81 376.91,335.12 223.39,44.19 363.35,62.09 623.06,85.04l1270.19 82.84c684.3,103.57 4863.75,59.14 5637.08,59.14 453.91,0 979.35,-24.75 1424.26,-0.17 167.76,9.26 141.4,38 299.59,38 156.4,0 153.64,-33.5 336.05,-39.05 231.64,-7.07 479.66,1.22 713.27,1.22 734.22,0 6705.67,40.45 7114.79,-5.48 418.67,-47 955.58,10.92 1386.58,-37.47 441.86,-49.61 1572.46,-82.08 1962.99,-173.09 210.13,-48.98 389.54,-78.81 440.9,-271.14 -170.3,-254.3 -786.45,-262.75 -1192.87,-306.15 -1154.68,-123.3 -3219.92,-106.08 -4390.93,-106.08 49.49,-136.7 722.63,-460.02 850.12,-536.46 316.29,-189.64 538.39,-346.44 825.65,-560.92 505.07,-377.11 602.8,-508.26 999.1,-874.66l746.14 -827.82c110.52,-149.88 200.94,-248.28 310.7,-401.33 489,-681.91 926.73,-1418.34 1247.29,-2200.42 57.35,-139.91 186.88,-370.43 182.57,-519.46z"/>
  <path class="fil2 str1" d="M19033.25 24498.79c-814.11,423.71 -2202.19,395.63 -3183.61,377.14 -898.01,-16.91 -2179.85,-290.85 -3006.5,-558.25 -1579.05,-510.78 -1978.16,-777.99 -3206.01,-1514.52l-525.53 -374.85c-81.46,-60.51 -42.41,-34.59 -122.77,-103.47 -74.78,-64.09 -168.37,-136.78 -251.06,-197.75 -475.61,-350.7 -1206.49,-1177.58 -1359.8,-1299.72l-1526.24 -2071.54c-916.13,-1533.75 -1675.19,-3785.73 -1558.51,-5575.74 54.64,-838.47 122.91,-823.75 318.91,-1464.23 -238.15,160.85 -646.78,1109.26 -729.59,1343.8 -588.52,1666.95 -603.92,3827.91 -82.83,5462.7 360.15,1129.94 725.58,1969.19 1286.31,2871.38 275.28,442.9 1009.86,1432.46 1352.04,1759.13 726.19,693.31 778.97,830.57 1646.38,1465.34 2406.13,1760.82 5336.53,2282.63 8216.45,1384.34 494.96,-154.38 1016.34,-407.31 1460.55,-637.2 314.08,-162.54 1113.71,-630.33 1271.81,-866.56z"/>
  <path class="fil1" d="M10000.92 6847.82c55.77,-192.09 -688.48,-948.32 -843.42,-1103.71 -2040.55,-2046.39 -4864.5,-3361.56 -7589.9,-4401.88 -232.49,-88.75 -1349.53,-441.08 -1440.45,-565.38 -197.03,0 319.78,1600.91 341.63,1663.39 195.32,558.45 411.14,1012.34 676.19,1497.38 273.26,500.09 329.77,555.96 639.1,972.34 513.7,691.5 1274.98,1374.38 2034.21,1788.24 1368.75,746.12 2946.34,943.99 4494.43,633.94 903.1,-180.87 1112.16,-348.32 1688.21,-484.32z"/>
  <path class="fil3" d="M16333.17 16221.65c-711.52,-0.17 -1422.47,0.19 -2134.01,-2.85 -372.12,-1.59 -671.85,-36.46 -950.93,134.73 -527.45,323.53 -492.97,1061.55 -32.8,1372.94 262.3,177.5 608.96,139.7 946.27,140.15 700.31,0.93 1471.96,-28.19 2162.93,4.39 118.52,948.44 -121.48,3293.28 103.86,3725.17 350.95,672.63 1254.89,634.26 1528.1,-7.73 174.2,-409.33 56.28,-2962.24 95.63,-3729.04 696.38,30.57 1441.52,7.21 2142.97,5.75 453.8,-0.95 1315.94,64.55 1309.22,-823.89 -2.38,-316.33 -166.02,-550.95 -367.58,-679.59 -298.06,-190.24 -537.68,-137.7 -941.64,-138.23 -713.49,-0.95 -1427.17,-2.6 -2140.58,-3.67 -52.56,-740.79 -8.34,-1643.25 -8.04,-2401.58 0.18,-453.54 140.12,-1493.86 -852.21,-1521.82 -328.18,-9.25 -623.12,191.65 -751.18,430 -155.07,288.65 -105.9,716.18 -105.66,1091.82 0.51,785.81 26.77,1623.9 -4.35,2403.45z"/>
  <path class="fil0 str0" d="M127.15 776.85c90.92,124.3 1207.96,476.63 1440.45,565.38 2725.4,1040.32 5549.35,2355.49 7589.9,4401.88 154.94,155.39 899.19,911.62 843.42,1103.71 115.6,30.46 86.49,32.38 146.32,117.11 39.62,56.1 58.77,94.43 102.29,159.97l308.17 478.8c42.46,75.38 45.24,88.95 95.67,166.66 116.9,180.08 119.87,242.45 247.98,276.66 0,-420.44 -39.5,-720.86 -36.98,-1162.21 2.11,-367.85 -58.92,-802.4 -112.53,-1124.16 -52.8,-317 -136.88,-679.92 -229.84,-969.36 -23.98,-74.67 -43.83,-143.42 -69.97,-229.84l-160.59 -439c-197.72,-519.56 -274.42,-574.54 -514.26,-1022.22 -82.97,-154.87 -140.15,-215.01 -239.97,-359.62 -99.39,-143.99 -162.07,-235.46 -275.09,-362 -477.66,-534.8 -995.62,-1051.35 -1622.56,-1412.93 -132.14,-76.23 -243.68,-133.53 -391.89,-207.7 -557.04,-278.73 -780.52,-344.93 -1342.86,-493.42l-1008.95 -190.26c-917.62,-116.53 -2026.32,-0.8 -2839.44,139.62 -379.31,65.5 -726.53,182.18 -1105.66,280.91l-823.61 282.02z"/>
 </g>
</svg>
